<svg xmlns="http://www.w3.org/2000/svg" width="32" height="32" version="1.0"><metadata/><path fill="#000" d="M5.7001,1.0041c-0.3949,0.0765-0.7071,0.4666-0.7,0.8748v26.246c0,0.458,0.4105,0.875,0.8616,0.875h20.278c0.4511-0.000012,0.86025-0.4168,0.86027-0.87489v-20.286c-0.007-0.1337-0.042-0.2658-0.106-0.3828-1.931-2.7792-4.071-4.8382-6.623-6.3976-0.086-0.0327-0.178-0.0512-0.27-0.0547h-14.139c-0.053686-0.0052-0.10786-0.0052-0.16155,0zm11.3,4.996c0-0.4714,0.5286-1,1-1h1v4h4v1c0,0.4714-0.5286,1-1,1h-4c-0.4714,0-1-0.5286-1-1,0-0.92823,0.000003-2.9834,0-4z" color="#000" opacity=".9" style="block-progression:tb;text-indent:0;text-transform:none"/><path fill="#FFF" d="M5.7001,3.0041c-0.3949,0.0765-0.7071,0.4666-0.7,0.8748v26.246c0,0.458,0.4105,0.875,0.8616,0.875h20.278c0.4511-0.000012,0.86025-0.4168,0.86027-0.87489v-20.286c-0.007-0.1337-0.042-0.2658-0.106-0.3828-1.931-2.7792-4.071-4.8382-6.623-6.3976-0.086-0.0327-0.178-0.0512-0.27-0.0547h-14.139c-0.053686-0.0052-0.10786-0.0052-0.16155,0zm11.3,4.996c0-0.4714,0.5286-1,1-1h1v4h4v1c0,0.4714-0.5286,1-1,1h-4c-0.4714,0-1-0.5286-1-1,0-0.92823,0.000003-2.9834,0-4z" color="#000" opacity=".1" style="block-progression:tb;text-indent:0;text-transform:none"/><rect width="163.31" height="97.986" x="-62.897" y="-16.993" fill-opacity="0" color="#000"/><path fill="#FFF" d="M5.7001,2.0041c-0.3949,0.0765-0.7071,0.4666-0.7,0.8748v26.246c0,0.458,0.4105,0.875,0.8616,0.875h20.278c0.4511-0.000012,0.86025-0.4168,0.86027-0.87489v-20.286c-0.007-0.1337-0.042-0.2658-0.106-0.3828-1.931-2.7792-4.071-4.8382-6.623-6.3976-0.086-0.0327-0.178-0.0512-0.27-0.0547h-14.139c-0.053686-0.0052-0.10786-0.0052-0.16155,0zm11.3,4.996c0-0.4714,0.5286-1,1-1h1v4h4v1c0,0.4714-0.5286,1-1,1h-4c-0.4714,0-1-0.5286-1-1,0-0.92823,0.000003-2.9834,0-4z" color="#000" style="block-progression:tb;text-indent:0;text-transform:none"/></svg>